# xmcd
#
# Track frame offsets:
#  150
#  20104
#  39119
#  60644
#  81362
#  101196
#  120106
#  146050
#  165168
#  187064
#  206205
#  228209
#  248120
#  267619
#  288703
#  309603
#  330763
#
# Disc length: 4670 seconds
#
# Revision: 0
# Processed by: cddbd v1.4PL0 Copyright (c) Steve Scherf et al.
# Submitted via: AltoMP3_Maker 3.0
#
DISCID=f1123c11
DTITLE=许志安等 - 寂寞恋人心
DYEAR=1900
DGENRE=
TTITLE0=我还能爱谁
TTITLE1=舍得
TTITLE2=开不了口
TTITLE3=一笑而过
TTITLE4=唯一
TTITLE5=爱就爱了
TTITLE6=黄昏
TTITLE7=记事本
TTITLE8=海浪
TTITLE9=盛夏的果实
TTITLE10=太委屈
TTITLE11=第一次
TTITLE12=完整
TTITLE13=悲伤止步
TTITLE14=恋人未满
TTITLE15=烫心
TTITLE16=一千零一个愿望
EXTD=
EXTT0=
EXTT1=
EXTT2=
EXTT3=
EXTT4=
EXTT5=
EXTT6=
EXTT7=
EXTT8=
EXTT9=
EXTT10=
EXTT11=
EXTT12=
EXTT13=
EXTT14=
EXTT15=
EXTT16=
PLAYORDER=
